HIERARCHY
ROOT reference
{
  OFFSET 0 0 0
  CHANNELS 6 Xposition Yposition Zposition Zrotation Xrotation Yrotation
  JOINT Hips
  {
    OFFSET 366.965 89.8555 201.872
    CHANNELS 3 Zrotation Xrotation Yrotation
    JOINT RightUpLeg
    {
      OFFSET -9.27238 -1.56811 0.0123499
      CHANNELS 3 Zrotation Xrotation Yrotation
      JOINT RightLeg
      {
        OFFSET 0.00682797 -41.8882 0.0419786
        CHANNELS 3 Zrotation Xrotation Yrotation
        JOINT RightFoot
        {
          OFFSET 0.530869 -42.1265 0.242224
          CHANNELS 3 Zrotation Xrotation Yrotation
          End Site
          {
            OFFSET 0 -7.69 17.5
          }
        }
      }
    }
    JOINT LeftUpLeg
    {
      OFFSET 9.28391 -1.61639 -0.0258413
      CHANNELS 3 Zrotation Xrotation Yrotation
      JOINT LeftLeg
      {
        OFFSET 0.0291166 -41.8727 -0.014263
        CHANNELS 3 Zrotation Xrotation Yrotation
        JOINT LeftFoot
        {
          OFFSET -0.125672 -41.4933 -0.195947
          CHANNELS 3 Zrotation Xrotation Yrotation
          End Site
          {
            OFFSET 0 -7.69 17.5
          }
        }
      }
    }
    JOINT Spine
    {
      OFFSET 0.0325614 14.2957 0.0242834
      CHANNELS 3 Zrotation Xrotation Yrotation
      JOINT Spine1
      {
        OFFSET 0.00746153 9.71731 0.0172653
        CHANNELS 3 Zrotation Xrotation Yrotation
        JOINT Spine2
        {
          OFFSET 0.0283815 10.1155 -0.00252583
          CHANNELS 3 Zrotation Xrotation Yrotation
          JOINT Spine3
          {
            OFFSET 0.0279172 9.71841 -0.00465252
            CHANNELS 3 Zrotation Xrotation Yrotation
            JOINT Neck
            {
              OFFSET 0.0182001 10.3765 0.0184284
              CHANNELS 3 Zrotation Xrotation Yrotation
              JOINT Head
              {
                OFFSET 0.0113688 9.47343 0.00632939
                CHANNELS 3 Zrotation Xrotation Yrotation
                End Site
                {
                  OFFSET 0 15.95 0
                }
              }
            }
            JOINT RightShoulder
            {
              OFFSET -3.17351 6.93492 0.00767284
              CHANNELS 3 Zrotation Xrotation Yrotation
              JOINT RightArm
              {
                OFFSET -12.7835 -0.0133269 0.0174019
                CHANNELS 3 Zrotation Xrotation Yrotation
                JOINT RightForeArm
                {
                  OFFSET -26.5112 -0.0170228 0.0247955
                  CHANNELS 3 Zrotation Xrotation Yrotation
                  JOINT RightHand
                  {
                    OFFSET -25.9918 -0.0199622 0.0218897
                    CHANNELS 3 Zrotation Xrotation Yrotation
                    JOINT RightHandThumb1
                    {
                      OFFSET -2.48905 0.190105 3.12053
                      CHANNELS 3 Zrotation Xrotation Yrotation
                      JOINT RightHandThumb2
                      {
                        OFFSET -3.68274 0 0
                        CHANNELS 3 Zrotation Xrotation Yrotation
                        JOINT RightHandThumb3
                        {
                          OFFSET -2.55832 0 0
                          CHANNELS 3 Zrotation Xrotation Yrotation
                          End Site
                          {
                            OFFSET -2.194 0 0
                          }
                        }
                      }
                    }
                    JOINT RightInHandIndex
                    {
                      OFFSET -3.22368 0.508421 1.97842
                      CHANNELS 3 Zrotation Xrotation Yrotation
                      JOINT RightHandIndex1
                      {
                        OFFSET -5.21684 -0.091368 0.999158
                        CHANNELS 3 Zrotation Xrotation Yrotation
                        JOINT RightHandIndex2
                        {
                          OFFSET -3.61937 0 0
                          CHANNELS 3 Zrotation Xrotation Yrotation
                          JOINT RightHandIndex3
                          {
                            OFFSET -2.0521 0 0
                            CHANNELS 3 Zrotation Xrotation Yrotation
                            End Site
                            {
                              OFFSET -1.805 0 0
                            }
                          }
                        }
                      }
                    }
                    JOINT RightInHandMiddle
                    {
                      OFFSET -3.38211 0.517263 0.756737
                      CHANNELS 3 Zrotation Xrotation Yrotation
                      JOINT RightHandMiddle1
                      {
                        OFFSET -5.17411 -0.084 0.313895
                        CHANNELS 3 Zrotation Xrotation Yrotation
                        JOINT RightHandMiddle2
                        {
                          OFFSET -3.94947 0 0
                          CHANNELS 3 Zrotation Xrotation Yrotation
                          JOINT RightHandMiddle3
                          {
                            OFFSET -2.47579 0 0
                            CHANNELS 3 Zrotation Xrotation Yrotation
                            End Site
                            {
                              OFFSET -1.975 0 0
                            }
                          }
                        }
                      }
                    }
                    JOINT RightInHandRing
                    {
                      OFFSET -3.36516 0.537895 -0.128947
                      CHANNELS 3 Zrotation Xrotation Yrotation
                      JOINT RightHandRing1
                      {
                        OFFSET -4.63474 -0.022105 -0.478947
                        CHANNELS 3 Zrotation Xrotation Yrotation
                        JOINT RightHandRing2
                        {
                          OFFSET -3.44238 0 0
                          CHANNELS 3 Zrotation Xrotation Yrotation
                          JOINT RightHandRing3
                          {
                            OFFSET -2.3881 0 0
                            CHANNELS 3 Zrotation Xrotation Yrotation
                            End Site
                            {
                              OFFSET -1.857 0 0
                            }
                          }
                        }
                      }
                    }
                    JOINT RightInHandPinky
                    {
                      OFFSET -3.16105 0.469368 -1.20179
                      CHANNELS 3 Zrotation Xrotation Yrotation
                      JOINT RightHandPinky1
                      {
                        OFFSET -4.14105 -0.022105 -1.09053
                        CHANNELS 3 Zrotation Xrotation Yrotation
                        JOINT RightHandPinky2
                        {
                          OFFSET -2.75653 0 0
                          CHANNELS 3 Zrotation Xrotation Yrotation
                          JOINT RightHandPinky3
                          {
                            OFFSET -1.74189 0 0
                            CHANNELS 3 Zrotation Xrotation Yrotation
                            End Site
                            {
                              OFFSET -1.645 0 0
                            }
                          }
                        }
                      }
                    }
                  }
                }
              }
            }
            JOINT LeftShoulder
            {
              OFFSET 3.23633 6.91116 -0.0162332
              CHANNELS 3 Zrotation Xrotation Yrotation
              JOINT LeftArm
              {
                OFFSET 12.8112 -0.0136289 -0.0286256
                CHANNELS 3 Zrotation Xrotation Yrotation
                JOINT LeftForeArm
                {
                  OFFSET 26.502 -0.0235899 -0.00806802
                  CHANNELS 3 Zrotation Xrotation Yrotation
                  JOINT LeftHand
                  {
                    OFFSET 25.9974 -0.0321613 -0.027004
                    CHANNELS 3 Zrotation Xrotation Yrotation
                    JOINT LeftHandThumb1
                    {
                      OFFSET 2.48905 0.190105 3.12053
                      CHANNELS 3 Zrotation Xrotation Yrotation
                      JOINT LeftHandThumb2
                      {
                        OFFSET 3.68274 0 0
                        CHANNELS 3 Zrotation Xrotation Yrotation
                        JOINT LeftHandThumb3
                        {
                          OFFSET 2.55832 0 0
                          CHANNELS 3 Zrotation Xrotation Yrotation
                          End Site
                          {
                            OFFSET 2.194 0 0
                          }
                        }
                      }
                    }
                    JOINT LeftInHandIndex
                    {
                      OFFSET 3.22368 0.508421 1.97842
                      CHANNELS 3 Zrotation Xrotation Yrotation
                      JOINT LeftHandIndex1
                      {
                        OFFSET 5.21684 -0.091368 0.999158
                        CHANNELS 3 Zrotation Xrotation Yrotation
                        JOINT LeftHandIndex2
                        {
                          OFFSET 3.61937 0 0
                          CHANNELS 3 Zrotation Xrotation Yrotation
                          JOINT LeftHandIndex3
                          {
                            OFFSET 2.0521 0 0
                            CHANNELS 3 Zrotation Xrotation Yrotation
                            End Site
                            {
                              OFFSET 1.805 0 0
                            }
                          }
                        }
                      }
                    }
                    JOINT LeftInHandMiddle
                    {
                      OFFSET 3.38211 0.517263 0.756737
                      CHANNELS 3 Zrotation Xrotation Yrotation
                      JOINT LeftHandMiddle1
                      {
                        OFFSET 5.17411 -0.084 0.313895
                        CHANNELS 3 Zrotation Xrotation Yrotation
                        JOINT LeftHandMiddle2
                        {
                          OFFSET 3.94947 0 0
                          CHANNELS 3 Zrotation Xrotation Yrotation
                          JOINT LeftHandMiddle3
                          {
                            OFFSET 2.47579 0 0
                            CHANNELS 3 Zrotation Xrotation Yrotation
                            End Site
                            {
                              OFFSET 1.975 0 0
                            }
                          }
                        }
                      }
                    }
                    JOINT LeftInHandRing
                    {
                      OFFSET 3.36516 0.537895 -0.128947
                      CHANNELS 3 Zrotation Xrotation Yrotation
                      JOINT LeftHandRing1
                      {
                        OFFSET 4.63474 -0.022105 -0.478947
                        CHANNELS 3 Zrotation Xrotation Yrotation
                        JOINT LeftHandRing2
                        {
                          OFFSET 3.44238 0 0
                          CHANNELS 3 Zrotation Xrotation Yrotation
                          JOINT LeftHandRing3
                          {
                            OFFSET 2.3881 0 0
                            CHANNELS 3 Zrotation Xrotation Yrotation
                            End Site
                            {
                              OFFSET 1.857 0 0
                            }
                          }
                        }
                      }
                    }
                    JOINT LeftInHandPinky
                    {
                      OFFSET 3.16105 0.469368 -1.20179
                      CHANNELS 3 Zrotation Xrotation Yrotation
                      JOINT LeftHandPinky1
                      {
                        OFFSET 4.14105 -0.022105 -1.09053
                        CHANNELS 3 Zrotation Xrotation Yrotation
                        JOINT LeftHandPinky2
                        {
                          OFFSET 2.75653 0 0
                          CHANNELS 3 Zrotation Xrotation Yrotation
                          JOINT LeftHandPinky3
                          {
                            OFFSET 1.74189 0 0
                            CHANNELS 3 Zrotation Xrotation Yrotation
                            End Site
                            {
                              OFFSET 1.645 0 0
                            }
                          }
                        }
                      }
                    }
                  }
                }
              }
            }
          }
        }
      }
    }
  }
}
MOTION
Frames: 2
Frame Time: 0.00833333
6.000000000000000000e+02 0.000000000000000000e+00 0.000000000000000000e+00 0.000000000000000000e+00 0.000000000000000000e+00 0.000000000000000000e+00 -1.413918620528936965e-01 -4.716299660120020637e-02 1.831335337296638444e-02 -4.837659588051210907e-02 1.920041224557363091e-01 -7.779062441975737041e-02 6.091056616613957364e-02 -7.688561219076000403e-03 7.292301665323472348e-02 -1.708718665834397243e-01 -1.631110731911464967e-02 -3.702366311142235578e-02 -2.113961628782407565e-01 9.828662105365379431e-02 1.514595851914261881e-01 1.964672823858836792e-01 -4.023982001230110017e-02 -5.509783811145048393e-02 2.018876634420373184e-02 2.916278734118858962e-01 -1.593203617889945023e-01 -5.675520944528170825e-02 -5.768535370865151418e-02 1.029998868202202100e-01 -1.500466059077459891e-02 -3.001997762224607041e-02 3.453162541081039594e-02 -2.273874530215698811e-02 -1.775949604382040872e-02 4.484187638386637198e-02 6.226272300912488213e-03 4.677721113403806447e-03 -1.083664826616028733e-02 1.586626053340581613e-02 1.943440058280931568e-02 -3.476777067366723650e-03 7.970719007035226289e-02 4.639570863953058205e-02 -2.084632436994725002e-01 5.234636007388632911e-02 2.722325385031934206e-02 1.349335792108771748e-01 1.396095242913208689e-01 -2.001344413888195561e-01 -6.705066014003316366e-02 -1.520618021084998439e-01 -4.172726469190076171e-01 2.505840550364989427e-01 1.472457316037897590e-01 -4.015737396695311379e-01 1.654158890934220166e-02 0.000000000000000000e+00 0.000000000000000000e+00 0.000000000000000000e+00 3.757861224259076166e-16 -2.817875410400557028e-17 0.000000000000000000e+00 2.561084206533968210e-17 1.378657115729558020e-15 0.000000000000000000e+00 -1.427206809980160104e-15 -7.778174004743341345e-16 -1.128658968961431519e-17 0.000000000000000000e+00 0.000000000000000000e+00 0.000000000000000000e+00 0.000000000000000000e+00 -4.135963734485404710e-16 -7.281570045832228239e-16 0.000000000000000000e+00 3.232738178751874018e-16 5.523717783690334463e-16 -1.427206809980160104e-15 -7.778174004743341345e-16 -1.128658968961431519e-17 0.000000000000000000e+00 6.150329119099218125e-16 1.396318444438186537e-15 0.000000000000000000e+00 -5.376059767973988729e-16 -1.725287806673620897e-16 0.000000000000000000e+00 6.251297824160607654e-16 -2.440635984639705815e-16 -1.427206809980160104e-15 -7.778174004743341345e-16 -1.128658968961431519e-17 0.000000000000000000e+00 0.000000000000000000e+00 0.000000000000000000e+00 0.000000000000000000e+00 -7.828321553621192509e-16 -5.933143844732434262e-16 0.000000000000000000e+00 3.338015917723520681e-16 3.260087173833834619e-17 -1.427206809980160104e-15 -7.778174004743341345e-16 -1.128658968961431519e-17 0.000000000000000000e+00 0.000000000000000000e+00 0.000000000000000000e+00 0.000000000000000000e+00 -4.561138593173179364e-17 5.572994602554233025e-16 0.000000000000000000e+00 8.815601568454754433e-16 -1.217906918696755701e-15 1.744806195362521573e-01 1.602014644556959133e-01 9.386405225179163259e-02 3.854269912838061141e-02 -1.109439597618746276e-01 7.052121193518871844e-02 -8.418302967703975015e-03 3.234601821586321341e-02 7.743934415938101556e-02 -6.182580736113205133e-02 -3.261713159573963877e-02 1.497975908038139403e-01 0.000000000000000000e+00 0.000000000000000000e+00 0.000000000000000000e+00 2.541757440206780438e-16 5.210090345916486529e-16 0.000000000000000000e+00 3.050783646129349621e-16 4.067981116272291122e-16 0.000000000000000000e+00 1.781667797613097035e-17 -3.320072020231535074e-16 4.724080612973194987e-16 0.000000000000000000e+00 0.000000000000000000e+00 0.000000000000000000e+00 0.000000000000000000e+00 5.034391151345319578e-17 2.379011746462098525e-16 0.000000000000000000e+00 5.107477586284969571e-16 2.984699114186705534e-16 1.781667797613097035e-17 -3.320072020231535074e-16 4.724080612973194987e-16 0.000000000000000000e+00 1.985865371119878388e-16 2.930190467521227859e-16 0.000000000000000000e+00 -7.740096350343269819e-16 2.491002686193279972e-16 0.000000000000000000e+00 -2.118185979766969744e-16 -2.802247875691264726e-16 1.781667797613097035e-17 -3.320072020231535074e-16 4.724080612973194987e-16 0.000000000000000000e+00 0.000000000000000000e+00 0.000000000000000000e+00 0.000000000000000000e+00 -1.477622597731239451e-16 1.085246214629985846e-17 0.000000000000000000e+00 -7.436607173181761477e-16 -6.726177461715854348e-16 1.781667797613097035e-17 -3.320072020231535074e-16 4.724080612973194987e-16 0.000000000000000000e+00 0.000000000000000000e+00 0.000000000000000000e+00 0.000000000000000000e+00 3.983415305596834024e-16 1.351883296238836324e-16 0.000000000000000000e+00 -3.743327636023769147e-16 -6.765234981478429048e-16
6.000000000000000000e+02 0.000000000000000000e+00 0.000000000000000000e+00 0.000000000000000000e+00 0.000000000000000000e+00 0.000000000000000000e+00 -1.208581721060859593e-01 -8.596022672896580508e-02 -8.317194658356516848e-03 4.107569212427963218e-02 1.879573441143382317e-01 1.402468007198052757e-01 1.063482232401464639e-01 -1.313937279253353518e-02 -6.110743896659825286e-02 -1.629397351024336471e-01 2.515403268263327607e-03 -7.136922986138022340e-04 -1.610098973254819876e-01 6.641127252979527051e-02 2.563459426283962173e-01 2.104552739080833568e-01 -5.925447334019211254e-02 -1.614892829405667127e-02 8.429986116082709841e-03 3.241975132871613430e-01 -2.343837229479903417e-01 -6.451931148856933362e-02 -6.369052964057968225e-02 8.991574504342347840e-02 -1.557383617331129649e-02 -3.450979116864763552e-02 3.123756335345327997e-02 -2.577585109795821339e-02 -3.792931425177097776e-02 4.344760723392003532e-02 5.907792864434994323e-03 4.518335380341364366e-03 -9.328311304791295222e-03 7.639296550787677900e-03 1.559855322287370151e-03 1.784484152954542990e-01 7.711094183682037917e-02 9.956047247617647034e-02 -3.202672921858112365e-01 1.308046995372668525e-02 5.506679182693940966e-02 9.890501501838744325e-02 8.323287446832282332e-02 -1.548822914756819435e-01 -1.077537613358839491e-01 -5.744736657342962294e-02 -4.042876522931976857e-01 2.217352852143592290e-01 9.775564365300740133e-02 -3.788847619571300562e-01 -2.432466633806870671e-02 0.000000000000000000e+00 0.000000000000000000e+00 0.000000000000000000e+00 -2.423555830614899566e-16 2.680068881322367227e-16 0.000000000000000000e+00 -5.002418508523481169e-16 1.117681153151081260e-15 0.000000000000000000e+00 -1.170513152284538014e-15 -7.711626568534518765e-16 -4.975325104330408428e-17 0.000000000000000000e+00 0.000000000000000000e+00 0.000000000000000000e+00 0.000000000000000000e+00 -8.310777626030264133e-16 -6.938574853841099404e-16 0.000000000000000000e+00 2.093758024858040573e-16 3.043766394570124857e-16 -1.170513152284538014e-15 -7.711626568534518765e-16 -4.975325104330408428e-17 0.000000000000000000e+00 5.524263565643059004e-16 9.457665495976493968e-16 0.000000000000000000e+00 -3.479124162192010716e-16 -1.008476906976391982e-16 0.000000000000000000e+00 3.606208974816636350e-16 -3.036220777956508796e-16 -1.170513152284538014e-15 -7.711626568534518765e-16 -4.975325104330408428e-17 0.000000000000000000e+00 0.000000000000000000e+00 0.000000000000000000e+00 0.000000000000000000e+00 -8.401627096757781029e-16 -6.930716942174626329e-16 0.000000000000000000e+00 3.648090604489185813e-16 -3.833442983450596380e-17 -1.170513152284538014e-15 -7.711626568534518765e-16 -4.975325104330408428e-17 0.000000000000000000e+00 0.000000000000000000e+00 0.000000000000000000e+00 0.000000000000000000e+00 4.043508465127632800e-17 2.670406086823771524e-16 0.000000000000000000e+00 9.005029465674541955e-16 -8.447015185753196922e-16 1.517583370430713730e-01 1.709256605293638931e-01 1.177852711642762285e-01 1.786832375562972808e-01 -1.711919379262449026e-01 -1.039148083070265266e-01 -7.970704627373592643e-02 -5.256972938727860756e-02 2.138890652396424619e-01 -6.338073036367118662e-02 -6.793219807769818042e-02 1.459717899352521164e-01 0.000000000000000000e+00 0.000000000000000000e+00 0.000000000000000000e+00 -9.916476021113624133e-17 6.429954265930688343e-16 0.000000000000000000e+00 -1.090400945798102811e-16 6.028208026151073837e-16 0.000000000000000000e+00 5.680757611117518574e-16 -2.449214979304618427e-16 4.849917402049849149e-16 0.000000000000000000e+00 0.000000000000000000e+00 0.000000000000000000e+00 0.000000000000000000e+00 -1.055986908509637279e-16 8.437830747192568432e-17 0.000000000000000000e+00 5.695166331033008502e-16 4.790228021721795497e-17 5.680757611117518574e-16 -2.449214979304618427e-16 4.849917402049849149e-16 0.000000000000000000e+00 3.036154978220215643e-16 8.054017308704173058e-17 0.000000000000000000e+00 -8.089703555813348173e-16 3.649257967837231855e-18 0.000000000000000000e+00 -2.619885640073663195e-16 -3.558540163911823087e-16 5.680757611117518574e-16 -2.449214979304618427e-16 4.849917402049849149e-16 0.000000000000000000e+00 0.000000000000000000e+00 0.000000000000000000e+00 0.000000000000000000e+00 -1.126429519546774691e-16 -4.662978299971234190e-17 0.000000000000000000e+00 -3.960077841672699030e-16 -2.594024663226683720e-16 5.680757611117518574e-16 -2.449214979304618427e-16 4.849917402049849149e-16 0.000000000000000000e+00 0.000000000000000000e+00 0.000000000000000000e+00 0.000000000000000000e+00 4.276874021577748121e-16 -6.776038127729820720e-17 0.000000000000000000e+00 -3.723664573822141143e-16 -4.927905758132335139e-16
